<?xml version="1.0" encoding="UTF-8"?>
<svg version="1.1" xmlns="http://www.w3.org/2000/svg" width="576" height="576">
<path d="M0 0 C190.08 0 380.16 0 576 0 C576 190.08 576 380.16 576 576 C385.92 576 195.84 576 0 576 C0 385.92 0 195.84 0 0 Z " fill="none" transform="translate(0,0)"/>
<path d="M0 0 C2.41404821 1.63487493 4.20659839 2.1313391 7.05859375 2.67651367 C8.00694092 2.86648926 8.95528809 3.05646484 9.93237305 3.25219727 C10.93695557 3.4463623 11.94153809 3.64052734 12.9765625 3.84057617 C30.2739434 7.4180412 48.7913226 11.76886219 60.1640625 26.46557617 C73.51353676 46.90150031 82.11064428 73.84259133 77.1640625 98.46557617 C76.8340625 99.12557617 76.5040625 99.78557617 76.1640625 100.46557617 C74.3190918 100.21875 74.3190918 100.21875 72.1640625 99.46557617 C70.84301758 97.70654297 70.84301758 97.70654297 69.68359375 95.41479492 C69.02677612 94.15650879 69.02677612 94.15650879 68.35668945 92.87280273 C67.67352661 91.52653809 67.67352661 91.52653809 66.9765625 90.15307617 C62.66566247 81.95644877 58.05096802 74.61707621 52.1640625 67.46557617 C52.37087646 68.04525146 52.57769043 68.62492676 52.79077148 69.22216797 C53.73125519 71.86455478 54.66645263 74.50878309 55.6015625 77.15307617 C56.08979492 78.52109375 56.08979492 78.52109375 56.58789062 79.91674805 C56.90048828 80.80297852 57.21308594 81.68920898 57.53515625 82.60229492 C57.82318115 83.41400146 58.11120605 84.22570801 58.40795898 85.06201172 C59.65923832 89.03968206 60.29050694 92.76779299 60.296875 96.93432617 C60.29816406 97.75288086 60.29945313 98.57143555 60.30078125 99.41479492 C60.29691406 100.25655273 60.29304688 101.09831055 60.2890625 101.96557617 C60.29292969 102.80733398 60.29679687 103.6490918 60.30078125 104.51635742 C60.29884766 105.74418945 60.29884766 105.74418945 60.296875 106.99682617 C60.29574707 107.73481445 60.29461914 108.47280273 60.29345703 109.2331543 C60.1640625 111.46557617 60.1640625 111.46557617 59.1640625 116.46557617 C65.1040625 117.45557617 65.1040625 117.45557617 71.1640625 118.46557617 C71.45703125 127.64526367 71.45703125 127.64526367 71.1640625 130.46557617 C69.6790625 131.45557617 69.6790625 131.45557617 68.1640625 132.46557617 C63.986963 142.84419975 63.79356672 154.64866868 65.23999023 165.54614258 C71.20947254 211.38717819 66.04128635 270.05991718 38.1484375 308.22338867 C22.24384568 328.76205221 0.14457847 338.43739552 -24.8359375 342.46557617 C-25.84914063 342.64991211 -26.86234375 342.83424805 -27.90625 343.02416992 C-50.11326628 345.5185962 -72.650406 343.51893221 -93.8359375 336.46557617 C-94.8878125 336.11881836 -95.9396875 335.77206055 -97.0234375 335.41479492 C-123.92208655 325.82226199 -146.37243103 306.29107128 -162.59765625 283.12963867 C-165.0683211 280.18898697 -167.60057691 278.50627668 -170.8359375 276.46557617 C-176.14307349 271.84453381 -180.53209688 266.48631511 -184.84375 260.94995117 C-186.7113763 258.62091131 -188.67172229 256.45651491 -190.7109375 254.27807617 C-194.32143338 250.27920026 -197.34511003 245.99630672 -200.3359375 241.52807617 C-201.00471924 240.53287964 -201.00471924 240.53287964 -201.68701172 239.51757812 C-204.8359375 234.72366341 -204.8359375 234.72366341 -204.8359375 232.46557617 C-206.15271484 232.09432617 -206.15271484 232.09432617 -207.49609375 231.71557617 C-216.81272498 228.22864986 -224.14723362 220.05088682 -228.8359375 211.46557617 C-230.40407264 207.8593449 -231.71620549 204.23413658 -232.8359375 200.46557617 C-233.03316406 199.85198242 -233.23039062 199.23838867 -233.43359375 198.60620117 C-234.02800919 195.44368019 -233.8763301 192.30562406 -233.8984375 189.09057617 C-234.1672275 181.21809599 -236.71407727 176.05470462 -240.89453125 169.52026367 C-246.52699989 160.65790859 -246.98163016 151.22326993 -247.07421875 141.00854492 C-247.08396729 140.11579361 -247.09371582 139.2230423 -247.10375977 138.30323792 C-247.44025766 99.47453601 -245.2944292 63.00518805 -217.2734375 33.46557617 C-210.801128 27.30898908 -205.44792381 24.63211077 -196.5859375 23.40307617 C-191.51961189 22.53437824 -191.51961189 22.53437824 -188.109375 19.00073242 C-187.32669193 16.93221288 -186.60875163 14.83830944 -185.94921875 12.72729492 C-181.64167032 0.10693374 -169.60796069 -9.66861349 -158.27734375 -15.90551758 C-111.45882305 -38.06592976 -40.12425997 -33.53470398 0 0 Z " fill="#000000" transform="translate(351.8359375,152.534423828125)"/>
<path d="M0 0 C2.3125 0.0625 2.3125 0.0625 5 1 C7.77914559 4.69245352 9.80989548 8.54001949 11.73730469 12.7097168 C16.32523219 22.56102978 21.40214171 31.14504529 31.5 36.125 C41.36487676 39.70877423 52.10284007 38.97272958 62 36 C63.32 36 64.64 36 66 36 C67.23798857 139.02604373 67.23798857 139.02604373 37 173 C36.37351562 173.70898438 35.74703125 174.41796875 35.1015625 175.1484375 C18.1612795 193.1950247 -6.27114816 198.03809578 -29.92578125 199.19140625 C-61.85318932 199.70581132 -92.86687042 190.33449774 -117 169 C-117.65355469 168.46632813 -118.30710937 167.93265625 -118.98046875 167.3828125 C-123.51462234 163.67941995 -127.26795334 159.49945885 -131 155 C-131.61617188 154.27167969 -132.23234375 153.54335938 -132.8671875 152.79296875 C-137.00685345 147.78048167 -140.78729697 142.56175521 -144.4375 137.1875 C-144.87489502 136.55320068 -145.31229004 135.91890137 -145.76293945 135.26538086 C-148.02170471 131.8814813 -149.57283118 129.07752057 -150 125 C-150.66 125 -151.32 125 -152 125 C-153.73078929 121.70918415 -155.45932297 118.41718833 -157.1875 115.125 C-157.67025391 114.2071875 -158.15300781 113.289375 -158.65039062 112.34375 C-161.50425628 106.90416713 -164.275359 101.44111457 -166.9152832 95.89404297 C-167.85983784 93.83928799 -167.85983784 93.83928799 -170 93 C-171.95673914 92.75759799 -173.9154491 92.53101107 -175.875 92.3125 C-186.90433025 90.64286658 -196.08239547 85.85587053 -203 77 C-208.74463105 68.15946 -210.38237309 58.11309698 -208.3828125 47.82421875 C-205.70326154 37.73440519 -200.96236112 30.20969026 -192.0625 24.5625 C-181.3460437 18.75912674 -181.3460437 18.75912674 -175.50390625 19.1796875 C-166.10800681 22.25790729 -160.45962492 35.40338299 -156.16455078 43.69970703 C-153.23259029 49.49109733 -150.40228164 55.33097398 -147.65234375 61.2109375 C-147.33257568 61.89462402 -147.01280762 62.57831055 -146.68334961 63.28271484 C-146 65 -146 65 -146 67 C-140.06 66.505 -140.06 66.505 -134 66 C-132.11622323 58.05924188 -130.42051843 50.11968959 -128.90722656 42.10083008 C-122.99794389 10.99691584 -122.99794389 10.99691584 -117 2 C-112.78147358 2.48046998 -111.11586892 4.74797029 -108.4375 7.875 C-104.91673573 12.13137809 -104.91673573 12.13137809 -101 16 C-98.83700789 15.77242269 -98.83700789 15.77242269 -97 15 C-97 13.35 -97 11.7 -97 10 C-97.66 10 -98.32 10 -99 10 C-100.32 7.03 -101.64 4.06 -103 1 C-99.11813253 1.97046687 -98.39781358 2.29145374 -95.75 4.875 C-89.627069 10.30747282 -82.99108416 11.46356148 -75 12 C-74.4121875 13.670625 -74.4121875 13.670625 -73.8125 15.375 C-69.10447755 27.83611298 -69.10447755 27.83611298 -59 36 C-48.43709716 39.19886016 -36.30580515 40.21511628 -26.1875 35.25 C-13.73850551 28.13628886 -8.64030346 16.6481742 -2.6015625 4.2109375 C-1 1 -1 1 0 0 Z " fill="#FDFDFD" transform="translate(339,285)"/>
<path d="M0 0 C0.7891832 -0.00388733 1.57836639 -0.00777466 2.39146423 -0.01177979 C12.92858645 0.06035336 25.32969644 0.99035203 34.16796875 7.1875 C35.62203125 8.20650391 35.62203125 8.20650391 37.10546875 9.24609375 C43.09411198 13.59747653 48.60110675 18.34991581 53.85546875 23.5625 C54.36045898 24.06201172 54.86544922 24.56152344 55.38574219 25.07617188 C57.85839004 27.59817058 59.83424325 29.89608384 61.16796875 33.1875 C60.06839844 33.39503906 58.96882813 33.60257813 57.8359375 33.81640625 C44.21928039 36.4075868 44.21928039 36.4075868 33.16796875 44.1875 C33.16796875 46.4975 33.16796875 48.8075 33.16796875 51.1875 C26.89796875 51.1875 20.62796875 51.1875 14.16796875 51.1875 C13.50796875 48.8775 12.84796875 46.5675 12.16796875 44.1875 C5.19714828 36.61052123 -7.84370177 33.62098989 -17.83203125 33.1875 C-18.86457031 33.1359375 -19.89710938 33.084375 -20.9609375 33.03125 C-29.03655174 32.81075541 -33.73704482 33.52099721 -40.51953125 37.9375 C-43.06756809 40.15191292 -43.06756809 40.15191292 -44.48046875 43.703125 C-46.30547686 46.97426154 -46.73736783 47.15246159 -50.546875 48.5625 C-51.94942861 48.80218522 -53.3577716 49.00990398 -54.76953125 49.1875 C-55.47271484 49.30738281 -56.17589844 49.42726563 -56.90039062 49.55078125 C-60.78489915 50.15511903 -64.03967887 50.25618639 -67.83203125 49.1875 C-68.70671699 46.27360608 -69.08003122 44.74815363 -67.828125 41.91796875 C-67.05662109 40.65919922 -67.05662109 40.65919922 -66.26953125 39.375 C-62.35625515 32.12178826 -60.71205046 24.47121853 -58.92553711 16.46557617 C-58.69487549 15.45599854 -58.46421387 14.4464209 -58.2265625 13.40625 C-57.93036011 12.0440332 -57.93036011 12.0440332 -57.62817383 10.65429688 C-56.68558317 7.73373999 -56.14871759 6.24359492 -53.83203125 4.1875 C-50.86906627 3.37446013 -47.89206597 3.15878889 -44.8359375 2.921875 C-43.93318588 2.83875061 -43.03043427 2.75562622 -42.10032654 2.66998291 C-40.17857231 2.49684241 -38.2559913 2.33268218 -36.33276367 2.17675781 C-33.46245109 1.94303066 -30.5958836 1.6812564 -27.72851562 1.4140625 C-18.48671051 0.58670071 -9.2808186 0.02997642 0 0 Z " fill="#FBFBFB" transform="translate(317.83203125,221.8125)"/>
<path d="M0 0 C1.2065625 0.0309375 1.2065625 0.0309375 2.4375 0.0625 C7.80369193 9.26639887 12.85498119 18.48644678 17 28.3125 C17.33386719 29.09729736 17.66773438 29.88209473 18.01171875 30.69067383 C21.19391107 38.43473272 23.57490727 47.88772451 20.25 55.9375 C17.36027038 59.32545887 14.68389072 61.64703643 10.4375 63.0625 C8.16904071 63.18367236 5.89666106 63.23790383 3.625 63.25 C1.82095703 63.27126953 1.82095703 63.27126953 -0.01953125 63.29296875 C-3.54333425 63.06374672 -6.28379528 62.33280979 -9.5625 61.0625 C-10.1875 58.6875 -10.1875 58.6875 -10.5625 56.0625 C-8.5625 54.0625 -8.5625 54.0625 -6.71484375 53.85131836 C-5.98394531 53.86815674 -5.25304687 53.88499512 -4.5 53.90234375 C-3.30503906 53.9187793 -3.30503906 53.9187793 -2.0859375 53.93554688 C-0.83683594 53.96745117 -0.83683594 53.96745117 0.4375 54 C2.08324645 54.03439253 3.72908868 54.06454252 5.375 54.08984375 C6.10589844 54.10781006 6.83679688 54.12577637 7.58984375 54.14428711 C9.53411137 54.18387045 9.53411137 54.18387045 11.4375 53.0625 C14.693709 40.47182522 7.09916993 27.73970454 1.40234375 16.81640625 C1.08507324 16.20555176 0.76780273 15.59469727 0.44091797 14.96533203 C-0.26872869 13.61959334 -0.995403 12.28276934 -1.73388672 10.95263672 C-2.10916504 10.25541504 -2.48444336 9.55819336 -2.87109375 8.83984375 C-3.21841553 8.21198975 -3.5657373 7.58413574 -3.92358398 6.93725586 C-4.72225025 4.59374869 -4.40281183 3.35931141 -3.5625 1.0625 C-2.5625 0.0625 -2.5625 0.0625 0 0 Z " fill="#010101" transform="translate(340.5625,313.9375)"/>
<path d="M0 0 C3.94680219 0.15407936 7.48403712 0.75127602 11.33984375 1.58984375 C27.22408964 5.01845574 42.16040846 5.44971114 57.90234375 1.15234375 C60.29292228 0.63656824 62.45462513 0.31552499 64.90234375 0.15234375 C65.89234375 1.14234375 65.89234375 1.14234375 66.90234375 2.15234375 C66.80859375 4.640625 66.80859375 4.640625 65.90234375 7.15234375 C63.93359375 8.4453125 63.93359375 8.4453125 61.40234375 9.33984375 C60.58765625 9.64277344 59.77296875 9.94570313 58.93359375 10.2578125 C51.13545732 12.55906668 43.91980509 13.54007787 35.77734375 13.52734375 C34.74633545 13.52645752 33.71532715 13.52557129 32.65307617 13.5246582 C25.05451346 13.41100572 17.70046817 12.63096656 10.21484375 11.33984375 C9.25368652 11.17468262 8.2925293 11.00952148 7.30224609 10.83935547 C2.61441058 9.94615433 -1.17359313 9.0354975 -5.09765625 6.15234375 C-4.02895396 0.19814528 -4.02895396 0.19814528 0 0 Z " fill="#040404" transform="translate(294.09765625,400.84765625)"/>
<path d="M0 0 C5.69688756 6.19955411 7.7180059 15.91763533 7.421875 24.1796875 C7 26 7 26 4.75 28.125 C1.81319197 29.05943892 0.73611124 29.36805562 -2 28 C-4.96076094 24.73456973 -5.9988791 21.39093713 -7.1875 17.1875 C-7.53167969 16.00542969 -7.87585938 14.82335937 -8.23046875 13.60546875 C-9.01582827 9.92584011 -9.25861762 6.7499555 -9 3 C-6.39370384 0.00758589 -3.88153513 -0.8733454 0 0 Z " fill="#020202" transform="translate(161,327)"/>
</svg>
